<svg width="355" height="234" viewBox="0 0 355 234" fill="none" xmlns="http://www.w3.org/2000/svg">
<rect x="4.11865" y="1" width="350" height="232.279" fill="#DE9F07"/>
<path d="M119.251 126H116.149L114.409 119.25C114.344 119.01 114.233 118.515 114.075 117.765C113.922 117.009 113.834 116.502 113.811 116.244C113.776 116.561 113.688 117.07 113.547 117.773C113.407 118.471 113.298 118.969 113.222 119.268L111.491 126H108.397L105.119 113.15H107.799L109.443 120.164C109.73 121.459 109.938 122.581 110.067 123.53C110.102 123.196 110.181 122.681 110.304 121.983C110.433 121.28 110.553 120.735 110.665 120.349L112.537 113.15H115.112L116.984 120.349C117.066 120.671 117.168 121.163 117.292 121.825C117.415 122.487 117.508 123.056 117.573 123.53C117.631 123.073 117.725 122.505 117.854 121.825C117.983 121.14 118.1 120.586 118.206 120.164L119.84 113.15H122.521L119.251 126ZM132.544 126L131.613 122.941H126.928L125.997 126H123.061L127.596 113.098H130.927L135.48 126H132.544ZM130.962 120.656C130.101 117.885 129.615 116.317 129.503 115.954C129.398 115.591 129.322 115.304 129.275 115.093C129.082 115.843 128.528 117.697 127.614 120.656H130.962ZM137.646 126V113.15H140.371V123.75H145.582V126H137.646ZM158.7 126H155.606L152.24 120.586L151.088 121.412V126H148.364V113.15H151.088V119.03L152.161 117.519L155.641 113.15H158.664L154.182 118.837L158.7 126ZM168.723 126L167.791 122.941H163.107L162.175 126H159.24L163.775 113.098H167.106L171.659 126H168.723ZM167.141 120.656C166.28 117.885 165.793 116.317 165.682 115.954C165.577 115.591 165.5 115.304 165.453 115.093C165.26 115.843 164.706 117.697 163.792 120.656H167.141ZM176.549 118.854H177.428C178.289 118.854 178.925 118.711 179.335 118.424C179.745 118.137 179.95 117.686 179.95 117.07C179.95 116.461 179.74 116.027 179.318 115.77C178.902 115.512 178.254 115.383 177.375 115.383H176.549V118.854ZM176.549 121.069V126H173.825V113.15H177.569C179.315 113.15 180.607 113.47 181.445 114.108C182.283 114.741 182.701 115.705 182.701 117C182.701 117.756 182.493 118.43 182.077 119.021C181.661 119.607 181.073 120.067 180.311 120.401C182.244 123.29 183.504 125.156 184.09 126H181.067L177.999 121.069H176.549ZM191.463 113.15H195.462C197.284 113.15 198.606 113.411 199.426 113.933C200.252 114.448 200.665 115.271 200.665 116.402C200.665 117.17 200.484 117.8 200.12 118.292C199.763 118.784 199.285 119.08 198.688 119.18V119.268C199.502 119.449 200.088 119.789 200.446 120.287C200.809 120.785 200.99 121.447 200.99 122.273C200.99 123.445 200.566 124.359 199.716 125.016C198.872 125.672 197.724 126 196.271 126H191.463V113.15ZM194.188 118.239H195.77C196.508 118.239 197.041 118.125 197.369 117.896C197.703 117.668 197.87 117.29 197.87 116.763C197.87 116.271 197.689 115.919 197.325 115.708C196.968 115.491 196.4 115.383 195.62 115.383H194.188V118.239ZM194.188 120.401V123.75H195.963C196.713 123.75 197.267 123.606 197.624 123.319C197.982 123.032 198.16 122.593 198.16 122.001C198.16 120.935 197.399 120.401 195.875 120.401H194.188ZM215.76 119.558C215.76 121.685 215.233 123.319 214.178 124.462C213.123 125.604 211.612 126.176 209.643 126.176C207.674 126.176 206.162 125.604 205.108 124.462C204.053 123.319 203.526 121.679 203.526 119.54C203.526 117.401 204.053 115.77 205.108 114.645C206.168 113.514 207.686 112.948 209.66 112.948C211.635 112.948 213.144 113.517 214.187 114.653C215.236 115.79 215.76 117.425 215.76 119.558ZM206.382 119.558C206.382 120.993 206.654 122.074 207.199 122.801C207.744 123.527 208.559 123.891 209.643 123.891C211.817 123.891 212.903 122.446 212.903 119.558C212.903 116.663 211.822 115.216 209.66 115.216C208.576 115.216 207.759 115.582 207.208 116.314C206.657 117.041 206.382 118.122 206.382 119.558ZM230.626 119.558C230.626 121.685 230.099 123.319 229.044 124.462C227.989 125.604 226.478 126.176 224.509 126.176C222.54 126.176 221.028 125.604 219.974 124.462C218.919 123.319 218.392 121.679 218.392 119.54C218.392 117.401 218.919 115.77 219.974 114.645C221.034 113.514 222.552 112.948 224.527 112.948C226.501 112.948 228.01 113.517 229.053 114.653C230.102 115.79 230.626 117.425 230.626 119.558ZM221.248 119.558C221.248 120.993 221.521 122.074 222.066 122.801C222.61 123.527 223.425 123.891 224.509 123.891C226.683 123.891 227.77 122.446 227.77 119.558C227.77 116.663 226.689 115.216 224.527 115.216C223.443 115.216 222.625 115.582 222.074 116.314C221.524 117.041 221.248 118.122 221.248 119.558ZM244.165 126H241.071L237.705 120.586L236.554 121.412V126H233.829V113.15H236.554V119.03L237.626 117.519L241.107 113.15H244.13L239.648 118.837L244.165 126ZM253.907 122.432C253.907 123.592 253.488 124.506 252.65 125.174C251.818 125.842 250.658 126.176 249.17 126.176C247.799 126.176 246.586 125.918 245.531 125.402V122.871C246.398 123.258 247.131 123.53 247.729 123.688C248.332 123.847 248.883 123.926 249.381 123.926C249.979 123.926 250.436 123.812 250.752 123.583C251.074 123.354 251.235 123.015 251.235 122.563C251.235 122.312 251.165 122.089 251.024 121.896C250.884 121.696 250.676 121.506 250.4 121.324C250.131 121.143 249.577 120.853 248.739 120.454C247.954 120.085 247.365 119.73 246.973 119.391C246.58 119.051 246.267 118.655 246.032 118.204C245.798 117.753 245.681 117.226 245.681 116.622C245.681 115.485 246.065 114.592 246.832 113.941C247.606 113.291 248.672 112.966 250.031 112.966C250.699 112.966 251.335 113.045 251.939 113.203C252.548 113.361 253.184 113.584 253.846 113.871L252.967 115.989C252.281 115.708 251.713 115.512 251.262 115.4C250.816 115.289 250.377 115.233 249.943 115.233C249.428 115.233 249.032 115.354 248.757 115.594C248.482 115.834 248.344 116.147 248.344 116.534C248.344 116.774 248.399 116.985 248.511 117.167C248.622 117.343 248.798 117.516 249.038 117.686C249.284 117.85 249.861 118.148 250.77 118.582C251.971 119.156 252.794 119.733 253.239 120.313C253.685 120.888 253.907 121.594 253.907 122.432Z" fill="#FEFEFE"/>
<path d="M4.11865 176.279L18.702 177.328C33.2853 178.456 62.452 180.435 91.6187 188.945C120.785 197.456 149.952 212.102 179.119 219.563C208.285 226.945 237.452 226.945 266.619 220.612C295.785 214.279 324.952 201.612 339.535 195.279L354.119 188.945V233.279H339.535C324.952 233.279 295.785 233.279 266.619 233.279C237.452 233.279 208.285 233.279 179.119 233.279C149.952 233.279 120.785 233.279 91.6187 233.279C62.452 233.279 33.2853 233.279 18.702 233.279H4.11865V176.279Z" fill="#FFC831"/>
<g filter="url(#filter0_d)">
<g clip-path="url(#clip0)">
<path d="M-67.6164 47.1601C-77.5868 37.05 -73.9157 13.6558 -69.1494 -10.1645C-64.3829 -33.9525 -58.4891 -58.1669 -43.2089 -67.2963C-27.8963 -76.4258 -3.16491 -70.4382 19.0764 -59.7226C41.3179 -48.9747 61.0372 -33.4665 65.0538 -14.7663C69.0706 3.96607 57.3524 25.8905 42.1507 37.376C26.9489 48.8615 8.29563 49.8755 -12.8691 52.002C-34.0017 54.0961 -57.646 57.2702 -67.6164 47.1601Z" fill="#FCB900"/>
</g>
</g>
<path d="M187 79.0938V59.4062C187 58.627 186.379 58 185.607 58H166.571C163.496 58 161 60.5195 161 63.625V82.375C161 85.4805 163.496 88 166.571 88H185.607C186.379 88 187 87.373 187 86.5938V85.6562C187 85.2168 186.797 84.8184 186.483 84.5605C186.24 83.6582 186.24 81.0859 186.483 80.1836C186.797 79.9316 187 79.5332 187 79.0938ZM168.429 65.8516C168.429 65.6582 168.585 65.5 168.777 65.5H181.08C181.272 65.5 181.429 65.6582 181.429 65.8516V67.0234C181.429 67.2168 181.272 67.375 181.08 67.375H168.777C168.585 67.375 168.429 67.2168 168.429 67.0234V65.8516ZM168.429 69.6016C168.429 69.4082 168.585 69.25 168.777 69.25H181.08C181.272 69.25 181.429 69.4082 181.429 69.6016V70.7734C181.429 70.9668 181.272 71.125 181.08 71.125H168.777C168.585 71.125 168.429 70.9668 168.429 70.7734V69.6016ZM183.135 84.25H166.571C165.544 84.25 164.714 83.4121 164.714 82.375C164.714 81.3438 165.55 80.5 166.571 80.5H183.135C183.025 81.502 183.025 83.248 183.135 84.25Z" fill="white"/>
<defs>
<filter id="filter0_d" x="0.118652" y="1" width="77.4062" height="77.4062" filterUnits="userSpaceOnUse" color-interpolation-filters="sRGB">
<feFlood flood-opacity="0" result="BackgroundImageFix"/>
<feColorMatrix in="SourceAlpha" type="matrix" values="0 0 0 0 0 0 0 0 0 0 0 0 0 0 0 0 0 0 127 0"/>
<feOffset dy="4"/>
<feGaussianBlur stdDeviation="2"/>
<feColorMatrix type="matrix" values="0 0 0 0 0 0 0 0 0 0 0 0 0 0 0 0 0 0 0.25 0"/>
<feBlend mode="normal" in2="BackgroundImageFix" result="effect1_dropShadow"/>
<feBlend mode="normal" in="SourceGraphic" in2="effect1_dropShadow" result="shape"/>
</filter>
<clipPath id="clip0">
<rect width="69" height="69" fill="white" transform="translate(73.5249 69.9988) rotate(179.662)"/>
</clipPath>
</defs>
</svg>
