<svg width="355" height="234" viewBox="0 0 355 234" fill="none" xmlns="http://www.w3.org/2000/svg">
<rect x="4.11865" y="1" width="350" height="232.279" fill="#DE9F07"/>
<path d="M105.018 126H97.6172V113.15H105.018V115.383H100.342V118.204H104.692V120.437H100.342V123.75H105.018V126ZM118.636 126H115.524L112.536 121.14L109.548 126H106.63L110.893 119.373L106.902 113.15H109.908L112.677 117.773L115.393 113.15H118.328L114.294 119.522L118.636 126ZM123.517 119.197H124.414C125.252 119.197 125.879 119.033 126.295 118.705C126.711 118.371 126.919 117.888 126.919 117.255C126.919 116.616 126.743 116.145 126.392 115.84C126.046 115.535 125.501 115.383 124.757 115.383H123.517V119.197ZM129.67 117.158C129.67 118.541 129.236 119.599 128.369 120.331C127.508 121.063 126.28 121.43 124.686 121.43H123.517V126H120.793V113.15H124.897C126.456 113.15 127.64 113.487 128.448 114.161C129.263 114.829 129.67 115.828 129.67 117.158ZM140.036 126H132.636V113.15H140.036V115.383H135.36V118.204H139.711V120.437H135.36V123.75H140.036V126ZM154.665 126H151.202L145.612 116.279H145.533C145.644 117.996 145.7 119.221 145.7 119.953V126H143.265V113.15H146.702L152.283 122.774H152.345C152.257 121.104 152.213 119.924 152.213 119.232V113.15H154.665V126ZM166.033 122.432C166.033 123.592 165.614 124.506 164.776 125.174C163.944 125.842 162.784 126.176 161.296 126.176C159.925 126.176 158.712 125.918 157.657 125.402V122.871C158.524 123.258 159.257 123.53 159.854 123.688C160.458 123.847 161.009 123.926 161.507 123.926C162.104 123.926 162.561 123.812 162.878 123.583C163.2 123.354 163.361 123.015 163.361 122.563C163.361 122.312 163.291 122.089 163.15 121.896C163.01 121.696 162.802 121.506 162.526 121.324C162.257 121.143 161.703 120.853 160.865 120.454C160.08 120.085 159.491 119.73 159.098 119.391C158.706 119.051 158.392 118.655 158.158 118.204C157.924 117.753 157.806 117.226 157.806 116.622C157.806 115.485 158.19 114.592 158.958 113.941C159.731 113.291 160.798 112.966 162.157 112.966C162.825 112.966 163.461 113.045 164.064 113.203C164.674 113.361 165.309 113.584 165.971 113.871L165.093 115.989C164.407 115.708 163.839 115.512 163.388 115.4C162.942 115.289 162.503 115.233 162.069 115.233C161.554 115.233 161.158 115.354 160.883 115.594C160.607 115.834 160.47 116.147 160.47 116.534C160.47 116.774 160.525 116.985 160.637 117.167C160.748 117.343 160.924 117.516 161.164 117.686C161.41 117.85 161.987 118.148 162.895 118.582C164.096 119.156 164.92 119.733 165.365 120.313C165.81 120.888 166.033 121.594 166.033 122.432ZM176.302 126H168.902V113.15H176.302V115.383H171.627V118.204H175.977V120.437H171.627V123.75H176.302V126ZM190.188 126L187.094 115.919H187.015C187.127 117.97 187.182 119.338 187.182 120.023V126H184.748V113.15H188.457L191.498 122.977H191.55L194.776 113.15H198.485V126H195.945V119.918C195.945 119.631 195.948 119.3 195.954 118.925C195.966 118.55 196.007 117.554 196.077 115.937H195.998L192.684 126H190.188ZM210.134 126L209.203 122.941H204.518L203.587 126H200.651L205.186 113.098H208.517L213.07 126H210.134ZM208.552 120.656C207.691 117.885 207.205 116.317 207.093 115.954C206.988 115.591 206.912 115.304 206.865 115.093C206.672 115.843 206.118 117.697 205.204 120.656H208.552ZM226.635 126H223.172L217.583 116.279H217.504C217.615 117.996 217.671 119.221 217.671 119.953V126H215.236V113.15H218.672L224.254 122.774H224.315C224.227 121.104 224.183 119.924 224.183 119.232V113.15H226.635V126ZM238.285 126L237.353 122.941H232.669L231.737 126H228.801L233.336 113.098H236.668L241.22 126H238.285ZM236.703 120.656C235.841 117.885 235.355 116.317 235.244 115.954C235.138 115.591 235.062 115.304 235.015 115.093C234.822 115.843 234.268 117.697 233.354 120.656H236.703ZM248.264 118.784H253.362V125.446C252.536 125.716 251.756 125.903 251.024 126.009C250.297 126.12 249.553 126.176 248.792 126.176C246.852 126.176 245.37 125.607 244.344 124.471C243.325 123.328 242.815 121.69 242.815 119.558C242.815 117.483 243.407 115.866 244.59 114.706C245.78 113.546 247.426 112.966 249.53 112.966C250.848 112.966 252.12 113.229 253.344 113.757L252.439 115.937C251.501 115.468 250.526 115.233 249.512 115.233C248.334 115.233 247.391 115.629 246.682 116.42C245.973 117.211 245.619 118.274 245.619 119.61C245.619 121.005 245.903 122.071 246.471 122.81C247.045 123.542 247.877 123.908 248.967 123.908C249.536 123.908 250.113 123.85 250.699 123.732V121.052H248.264V118.784ZM264.37 126H256.969V113.15H264.37V115.383H259.694V118.204H264.044V120.437H259.694V123.75H264.37V126ZM270.324 118.854H271.203C272.064 118.854 272.7 118.711 273.11 118.424C273.52 118.137 273.725 117.686 273.725 117.07C273.725 116.461 273.514 116.027 273.092 115.77C272.676 115.512 272.029 115.383 271.15 115.383H270.324V118.854ZM270.324 121.069V126H267.599V113.15H271.343C273.089 113.15 274.381 113.47 275.219 114.108C276.057 114.741 276.476 115.705 276.476 117C276.476 117.756 276.268 118.43 275.852 119.021C275.436 119.607 274.847 120.067 274.085 120.401C276.019 123.29 277.279 125.156 277.865 126H274.841L271.774 121.069H270.324Z" fill="#FEFEFE"/>
<path d="M4.11865 176.279L18.702 177.328C33.2853 178.456 62.452 180.435 91.6187 188.945C120.785 197.456 149.952 212.102 179.119 219.563C208.285 226.945 237.452 226.945 266.619 220.612C295.785 214.279 324.952 201.612 339.535 195.279L354.119 188.945V233.279H339.535C324.952 233.279 295.785 233.279 266.619 233.279C237.452 233.279 208.285 233.279 179.119 233.279C149.952 233.279 120.785 233.279 91.6187 233.279C62.452 233.279 33.2853 233.279 18.702 233.279H4.11865V176.279Z" fill="#FFC831"/>
<g filter="url(#filter0_d)">
<g clip-path="url(#clip0)">
<path d="M-67.6165 47.1601C-77.5869 37.05 -73.9157 13.6558 -69.1494 -10.1645C-64.383 -33.9525 -58.4892 -58.1669 -43.2089 -67.2963C-27.8964 -76.4258 -3.16497 -70.4382 19.0763 -59.7226C41.3178 -48.9747 61.0371 -33.4665 65.0538 -14.7663C69.0705 3.96607 57.3524 25.8905 42.1506 37.376C26.9488 48.8615 8.29557 49.8755 -12.8692 52.002C-34.0018 54.0961 -57.6461 57.2702 -67.6165 47.1601Z" fill="#FCB900"/>
</g>
</g>
<path d="M178.5 72.5H167.5V76.125H178.5V72.5ZM183.599 63.9473L177.99 58.3965C177.732 58.1416 177.383 58 177.016 58H176.667V65.25H184V64.9045C184 64.5477 183.857 64.2021 183.599 63.9473ZM174.833 65.7031V58H163.375C162.613 58 162 58.6061 162 59.3594V85.6406C162 86.3939 162.613 87 163.375 87H182.625C183.387 87 184 86.3939 184 85.6406V67.0625H176.208C175.452 67.0625 174.833 66.4508 174.833 65.7031ZM165.667 62.0781C165.667 61.8278 165.872 61.625 166.125 61.625H170.708C170.962 61.625 171.167 61.8278 171.167 62.0781V62.9844C171.167 63.2347 170.962 63.4375 170.708 63.4375H166.125C165.872 63.4375 165.667 63.2347 165.667 62.9844V62.0781ZM165.667 65.7031C165.667 65.4528 165.872 65.25 166.125 65.25H170.708C170.962 65.25 171.167 65.4528 171.167 65.7031V66.6094C171.167 66.8597 170.962 67.0625 170.708 67.0625H166.125C165.872 67.0625 165.667 66.8597 165.667 66.6094V65.7031ZM180.333 82.9219C180.333 83.1722 180.128 83.375 179.875 83.375H175.292C175.038 83.375 174.833 83.1722 174.833 82.9219V82.0156C174.833 81.7653 175.038 81.5625 175.292 81.5625H179.875C180.128 81.5625 180.333 81.7653 180.333 82.0156V82.9219ZM180.333 71.5938V77.0312C180.333 77.532 179.923 77.9375 179.417 77.9375H166.583C166.077 77.9375 165.667 77.532 165.667 77.0312V71.5938C165.667 71.093 166.077 70.6875 166.583 70.6875H179.417C179.923 70.6875 180.333 71.093 180.333 71.5938Z" fill="white"/>
<defs>
<filter id="filter0_d" x="0.118652" y="1" width="77.4062" height="77.4062" filterUnits="userSpaceOnUse" color-interpolation-filters="sRGB">
<feFlood flood-opacity="0" result="BackgroundImageFix"/>
<feColorMatrix in="SourceAlpha" type="matrix" values="0 0 0 0 0 0 0 0 0 0 0 0 0 0 0 0 0 0 127 0"/>
<feOffset dy="4"/>
<feGaussianBlur stdDeviation="2"/>
<feColorMatrix type="matrix" values="0 0 0 0 0 0 0 0 0 0 0 0 0 0 0 0 0 0 0.25 0"/>
<feBlend mode="normal" in2="BackgroundImageFix" result="effect1_dropShadow"/>
<feBlend mode="normal" in="SourceGraphic" in2="effect1_dropShadow" result="shape"/>
</filter>
<clipPath id="clip0">
<rect width="69" height="69" fill="white" transform="translate(73.5249 69.9988) rotate(179.662)"/>
</clipPath>
</defs>
</svg>
