<svg width="355" height="234" viewBox="0 0 355 234" fill="none" xmlns="http://www.w3.org/2000/svg">
<rect x="4.11865" y="1" width="350" height="232.279" fill="#DE9F07"/>
<path d="M127.272 129.779C126.657 129.779 126.121 129.715 125.664 129.586V127.318C126.133 127.436 126.561 127.494 126.947 127.494C127.545 127.494 127.973 127.307 128.23 126.932C128.488 126.562 128.617 125.982 128.617 125.191V113.15H131.342V125.174C131.342 126.674 130.999 127.816 130.313 128.602C129.628 129.387 128.614 129.779 127.272 129.779ZM142.517 126H135.116V113.15H142.517V115.383H137.841V118.204H142.191V120.437H137.841V123.75H142.517V126ZM153.612 126L152.681 122.941H147.996L147.064 126H144.129L148.664 113.098H151.995L156.548 126H153.612ZM152.03 120.656C151.169 117.885 150.683 116.317 150.571 115.954C150.466 115.591 150.39 115.304 150.343 115.093C150.149 115.843 149.596 117.697 148.682 120.656H152.03ZM170.113 126H166.65L161.06 116.279H160.981C161.093 117.996 161.148 119.221 161.148 119.953V126H158.714V113.15H162.15L167.731 122.774H167.793C167.705 121.104 167.661 119.924 167.661 119.232V113.15H170.113V126ZM183.99 118.784H189.088V125.446C188.262 125.716 187.482 125.903 186.75 126.009C186.023 126.12 185.279 126.176 184.517 126.176C182.578 126.176 181.096 125.607 180.07 124.471C179.051 123.328 178.541 121.69 178.541 119.558C178.541 117.483 179.133 115.866 180.316 114.706C181.506 113.546 183.152 112.966 185.256 112.966C186.574 112.966 187.846 113.229 189.07 113.757L188.165 115.937C187.227 115.468 186.252 115.233 185.238 115.233C184.06 115.233 183.117 115.629 182.408 116.42C181.699 117.211 181.345 118.274 181.345 119.61C181.345 121.005 181.629 122.071 182.197 122.81C182.771 123.542 183.603 123.908 184.693 123.908C185.262 123.908 185.839 123.85 186.425 123.732V121.052H183.99V118.784ZM195.42 118.854H196.299C197.16 118.854 197.796 118.711 198.206 118.424C198.616 118.137 198.821 117.686 198.821 117.07C198.821 116.461 198.61 116.027 198.188 115.77C197.772 115.512 197.125 115.383 196.246 115.383H195.42V118.854ZM195.42 121.069V126H192.695V113.15H196.439C198.185 113.15 199.477 113.47 200.315 114.108C201.153 114.741 201.572 115.705 201.572 117C201.572 117.756 201.364 118.43 200.948 119.021C200.532 119.607 199.943 120.067 199.181 120.401C201.115 123.29 202.375 125.156 202.961 126H199.937L196.87 121.069H195.42ZM212.984 126L212.052 122.941H207.368L206.436 126H203.501L208.036 113.098H211.367L215.92 126H212.984ZM211.402 120.656C210.541 117.885 210.054 116.317 209.943 115.954C209.838 115.591 209.761 115.304 209.715 115.093C209.521 115.843 208.967 117.697 208.053 120.656H211.402ZM222.085 118.441L224.765 113.15H227.701L223.438 120.999V126H220.731V121.087L216.468 113.15H219.422L222.085 118.441Z" fill="#FEFEFE"/>
<path d="M4.11865 176.279L18.702 177.328C33.2853 178.456 62.452 180.435 91.6187 188.945C120.785 197.456 149.952 212.102 179.119 219.563C208.285 226.945 237.452 226.945 266.619 220.612C295.785 214.279 324.952 201.612 339.535 195.279L354.119 188.945V233.279H339.535C324.952 233.279 295.785 233.279 266.619 233.279C237.452 233.279 208.285 233.279 179.119 233.279C149.952 233.279 120.785 233.279 91.6187 233.279C62.452 233.279 33.2853 233.279 18.702 233.279H4.11865V176.279Z" fill="#FFC831"/>
<g filter="url(#filter0_d)">
<g clip-path="url(#clip0)">
<path d="M-67.6165 47.1601C-77.5869 37.05 -73.9157 13.6558 -69.1494 -10.1645C-64.383 -33.9525 -58.4892 -58.1669 -43.2089 -67.2963C-27.8964 -76.4258 -3.16497 -70.4382 19.0763 -59.7226C41.3178 -48.9747 61.0371 -33.4665 65.0538 -14.7663C69.0705 3.96607 57.3524 25.8905 42.1506 37.376C26.9488 48.8615 8.29557 49.8755 -12.8692 52.002C-34.0018 54.0961 -57.6461 57.2702 -67.6165 47.1601Z" fill="#FCB900"/>
</g>
</g>
<g clip-path="url(#clip1)">
<path d="M181.885 81.6667H176.551C176.183 81.6667 175.885 81.9647 175.885 82.3333C175.885 82.702 176.183 83 176.551 83H181.885C182.253 83 182.551 82.702 182.551 82.3333C182.551 81.9647 182.253 81.6667 181.885 81.6667Z" fill="white"/>
<path d="M173.319 75.648C173.442 75.7573 173.6 75.8166 173.762 75.8166C173.796 75.8166 173.83 75.814 173.863 75.8087C174.06 75.7787 174.233 75.662 174.334 75.4913L176.022 72.6773C176.131 72.4967 176.148 72.2746 176.067 72.0786C175.987 71.8833 175.818 71.7373 175.612 71.6867L168.853 69.9967C168.557 69.9207 168.245 70.0606 168.101 70.332C167.958 70.6033 168.019 70.9373 168.249 71.1413L173.319 75.648ZM174.415 72.7613L173.603 74.116L171.165 71.9487L174.415 72.7613Z" fill="white"/>
<path d="M181.935 72.0786C181.854 72.2746 181.871 72.4967 181.98 72.6773L183.669 75.4913C183.771 75.662 183.943 75.7787 184.139 75.8087C184.173 75.814 184.207 75.8166 184.241 75.8166C184.403 75.8166 184.561 75.7573 184.683 75.648L189.753 71.1413C189.983 70.9373 190.043 70.6033 189.899 70.332C189.756 70.0606 189.444 69.92 189.149 69.9967L182.389 71.6867C182.184 71.738 182.015 71.8833 181.935 72.0786ZM186.839 71.9487L184.401 74.1166L183.589 72.7613L186.839 71.9487Z" fill="white"/>
<path d="M190.5 53.41C190.379 53.1187 190.074 52.952 189.759 53.0113C189.449 53.0713 189.223 53.34 189.218 53.656C189.169 56.7393 188.805 59.196 188.263 61.1647C185.614 58.9093 182.292 57.6667 178.785 57.6667C175.457 57.6667 172.261 58.808 169.665 60.8813C169.165 58.9613 168.833 56.594 168.785 53.656C168.78 53.3407 168.554 53.072 168.244 53.012C167.928 52.9527 167.624 53.1193 167.503 53.4107C167.284 53.936 162.78 64.8887 164.149 71.6853L164.141 71.8247C164.129 71.9933 164.119 72.162 164.119 72.3333C164.119 80.4207 170.698 87 178.785 87C186.536 87 192.933 80.9593 193.403 73.2293C195.97 66.7093 190.737 53.978 190.5 53.41ZM191.38 76.2907C190.117 79.684 188.011 81.702 186.785 82.5473V79.3533L191.38 76.2907ZM190.373 56.9193C191.869 61.3413 194.102 69.5147 191.807 73.4893C191.709 73.658 191.607 73.82 191.495 73.9687C191.494 73.97 191.493 73.972 191.492 73.9733C191.37 74.136 191.238 74.2867 191.098 74.426C191.084 74.44 191.069 74.4513 191.055 74.4653C190.933 74.5833 190.805 74.6927 190.669 74.794C190.632 74.822 190.593 74.8467 190.555 74.8727C190.437 74.954 190.315 75.03 190.189 75.0993C190.14 75.126 190.09 75.1513 190.039 75.176C189.915 75.2373 189.786 75.2927 189.653 75.3433C189.597 75.3647 189.542 75.3867 189.484 75.406C189.344 75.4533 189.198 75.4927 189.049 75.528C188.993 75.5413 188.94 75.5573 188.883 75.5693C188.677 75.6127 188.463 75.6473 188.238 75.67C187.281 75.7667 186.419 75.86 185.544 76.0353L181.64 76.816C181.498 76.8427 181.396 76.782 181.347 76.7427C181.299 76.7033 181.219 76.616 181.219 76.4713V70.6593C181.219 70.4853 181.341 70.3407 181.444 70.322C181.451 70.322 181.466 70.3207 181.485 70.3193C181.497 70.3187 181.513 70.3167 181.528 70.3153C181.533 70.3147 181.537 70.3147 181.543 70.314C182.474 70.2253 189.169 69.1673 190.373 56.9193ZM178.785 59C182.155 59 185.345 60.2507 187.815 62.5313C185.593 68.6513 181.545 68.9793 181.31 68.996C181.277 69.0007 181.247 69.0127 181.215 69.0193C180.44 69.1813 179.885 69.8527 179.885 70.6587V76.4707C179.885 76.5973 179.899 76.722 179.927 76.8427C179.93 76.8573 179.937 76.8707 179.941 76.8853C179.956 76.942 179.978 76.9953 179.998 77.05L179.058 78.2753L178.057 76.9033C178.063 76.8827 178.073 76.864 178.078 76.8427C178.105 76.722 178.119 76.5973 178.119 76.4707V70.6587C178.119 69.854 177.566 69.1847 176.739 69.0153C176.703 69.008 176.669 68.996 176.632 68.99C176.452 68.978 172.284 68.642 170.087 62.2493C172.514 60.1513 175.587 59 178.785 59ZM167.631 56.9207C168.835 69.1733 175.533 70.2267 176.405 70.308C176.409 70.3087 176.413 70.3087 176.417 70.3093C176.433 70.3107 176.447 70.312 176.459 70.3127C176.476 70.314 176.489 70.3147 176.495 70.3147C176.663 70.34 176.786 70.4847 176.786 70.6587V76.4707C176.786 76.6153 176.705 76.7033 176.657 76.742C176.647 76.7507 176.624 76.76 176.609 76.7693C176.553 76.8033 176.474 76.8373 176.365 76.8153L172.461 76.0347C171.586 75.8593 170.724 75.766 169.768 75.6693C169.503 75.6427 169.253 75.5967 169.011 75.5413C168.959 75.5293 168.907 75.516 168.855 75.5027C168.369 75.3747 167.929 75.188 167.543 74.9353C167.527 74.9253 167.512 74.914 167.497 74.9033C167.099 74.6353 166.753 74.3007 166.461 73.8953C166.454 73.8867 166.448 73.8767 166.442 73.8673C166.324 73.7007 166.219 73.5167 166.119 73.3267C166.07 73.236 166.025 73.142 165.981 73.0467C165.898 72.8673 165.819 72.6827 165.75 72.4847C165.729 72.4253 165.71 72.3647 165.691 72.304C165.61 72.0507 165.535 71.788 165.475 71.506C164.545 67.2113 166.353 60.7 167.631 56.9207ZM170.785 82.5473C169.559 81.7027 167.454 79.6853 166.191 76.294L170.785 79.3533V82.5473ZM171.952 83.7693C172.055 83.6167 172.118 83.4373 172.118 83.2453V79.142C172.118 78.8353 171.967 78.5473 171.705 78.3647L169.655 77C170.566 77.092 171.389 77.1813 172.199 77.3433L176.103 78.124C176.213 78.146 176.325 78.1573 176.436 78.1573C176.443 78.1573 176.451 78.1553 176.458 78.1553C176.485 78.1553 176.512 78.15 176.539 78.1487C176.625 78.1433 176.709 78.1327 176.792 78.1147C176.829 78.1067 176.864 78.0967 176.899 78.0867C176.976 78.0647 177.051 78.036 177.124 78.0033C177.145 77.994 177.168 77.9893 177.189 77.9787L178.504 79.7833C178.628 79.9533 178.824 80.0547 179.035 80.0573C179.037 80.0573 179.04 80.0573 179.043 80.0573C179.25 80.0573 179.445 79.9607 179.571 79.796L180.929 78.0267C180.986 78.0507 181.045 78.07 181.105 78.0873C181.139 78.0973 181.174 78.1073 181.209 78.1147C181.293 78.1333 181.379 78.144 181.465 78.1493C181.492 78.1513 181.518 78.156 181.545 78.156C181.553 78.156 181.56 78.158 181.567 78.158C181.678 78.158 181.79 78.1467 181.901 78.1247L185.805 77.344C186.453 77.214 187.122 77.1333 187.827 77.0587L185.853 78.3733C185.602 78.5487 185.451 78.836 185.451 79.1427V83.246C185.451 83.438 185.514 83.6167 185.617 83.7693C183.615 84.9693 181.28 85.6667 178.785 85.6667C176.287 85.6667 173.953 84.9693 171.952 83.7693Z" fill="white"/>
</g>
<defs>
<filter id="filter0_d" x="0.118652" y="1" width="77.4062" height="77.4062" filterUnits="userSpaceOnUse" color-interpolation-filters="sRGB">
<feFlood flood-opacity="0" result="BackgroundImageFix"/>
<feColorMatrix in="SourceAlpha" type="matrix" values="0 0 0 0 0 0 0 0 0 0 0 0 0 0 0 0 0 0 127 0"/>
<feOffset dy="4"/>
<feGaussianBlur stdDeviation="2"/>
<feColorMatrix type="matrix" values="0 0 0 0 0 0 0 0 0 0 0 0 0 0 0 0 0 0 0.25 0"/>
<feBlend mode="normal" in2="BackgroundImageFix" result="effect1_dropShadow"/>
<feBlend mode="normal" in="SourceGraphic" in2="effect1_dropShadow" result="shape"/>
</filter>
<clipPath id="clip0">
<rect width="69" height="69" fill="white" transform="translate(73.5249 69.9988) rotate(179.662)"/>
</clipPath>
<clipPath id="clip1">
<rect width="34" height="34" fill="white" transform="translate(162 53)"/>
</clipPath>
</defs>
</svg>
