<svg xmlns="http://www.w3.org/2000/svg" width="120" height="42">
  <style>
  </style>
  <path id="Pavan" d="M3.09 36.64h4.17v-11.9h6c6.29 0 9.65-3.6 9.65-9.12v-2.55C22.91 7.6 19.55 4 13.26 4H3.09zm10.17-28.7c3.46 0 5.33 1.92 5.33 5.13v2.55c0 3.26-1.87 5.23-5.33 5.23h-6V7.94zm33.32 28.94h.72v-3.6h-.53c-1.73 0-2.16-1.1-2.16-2.59V20.42c0-4.32-1.59-8.02-8.26-8.02-2.73 0-5.37.72-8.3 2.06l1.25 3.27c2.49-1.11 4.75-1.68 6.86-1.68 3.02 0 4.61 1.1 4.61 4.65v3.22c-2.11-.34-4.23-.58-5.95-.58-5.91 0-7.83 2.93-7.83 6.82 0 3.94 1.92 6.96 6.1 6.96 2.54 0 4.99-.96 8.11-3.74.67 2.01 2.45 3.5 5.38 3.5zm-15.7-6.77c0-2.45 1.2-3.65 4.13-3.65 1.58 0 3.69.2 5.76.53v3.03c-3.22 3.02-5.28 3.74-6.91 3.74-1.92 0-2.98-1.44-2.98-3.65zm38.78-17.23h-3.88l-3.89 11.57-2.35 7.25-2.4-7.25-3.99-11.57h-4.08l8.5 23.76h3.69zm22.66 24h.72v-3.6h-.53c-1.73 0-2.16-1.1-2.16-2.59V20.42c0-4.32-1.58-8.02-8.25-8.02-2.74 0-5.38.72-8.31 2.06l1.25 3.27c2.5-1.11 4.75-1.68 6.86-1.68 3.03 0 4.61 1.1 4.61 4.65v3.22c-2.11-.34-4.22-.58-5.95-.58-5.9 0-7.82 2.93-7.82 6.82 0 3.94 1.92 6.96 6.09 6.96 2.55 0 4.99-.96 8.11-3.74.68 2.01 2.45 3.5 5.38 3.5zm-15.7-6.77c0-2.45 1.2-3.65 4.13-3.65 1.59 0 3.7.2 5.76.53v3.03c-3.21 3.02-5.28 3.74-6.91 3.74-1.92 0-2.98-1.44-2.98-3.65zm33.41-14.01c2.59 0 3.84 1.53 3.84 4.89v15.65h3.94V20.42c0-5.09-2.4-8.02-6.82-8.02-2.59 0-5.23.91-8.64 3.79v-3.31h-3.74v23.76h3.93V19.5c3.41-2.73 5.67-3.4 7.49-3.4z"/>
</svg>
