<svg width="355" height="234" viewBox="0 0 355 234" fill="none" xmlns="http://www.w3.org/2000/svg">
<rect x="4.11865" y="1" width="350" height="232.279" fill="#DE9F07"/>
<path d="M120.342 121.197H121.238C122.076 121.197 122.703 121.033 123.119 120.705C123.535 120.371 123.743 119.888 123.743 119.255C123.743 118.616 123.567 118.145 123.216 117.84C122.87 117.535 122.325 117.383 121.581 117.383H120.342V121.197ZM126.494 119.158C126.494 120.541 126.061 121.599 125.193 122.331C124.332 123.063 123.104 123.43 121.511 123.43H120.342V128H117.617V115.15H121.722C123.28 115.15 124.464 115.487 125.272 116.161C126.087 116.829 126.494 117.828 126.494 119.158ZM141.123 121.558C141.123 123.685 140.596 125.319 139.541 126.462C138.486 127.604 136.975 128.176 135.006 128.176C133.037 128.176 131.525 127.604 130.471 126.462C129.416 125.319 128.889 123.679 128.889 121.54C128.889 119.401 129.416 117.77 130.471 116.645C131.531 115.514 133.049 114.948 135.023 114.948C136.998 114.948 138.507 115.517 139.55 116.653C140.599 117.79 141.123 119.425 141.123 121.558ZM131.745 121.558C131.745 122.993 132.018 124.074 132.562 124.801C133.107 125.527 133.922 125.891 135.006 125.891C137.18 125.891 138.267 124.446 138.267 121.558C138.267 118.663 137.186 117.216 135.023 117.216C133.939 117.216 133.122 117.582 132.571 118.314C132.02 119.041 131.745 120.122 131.745 121.558ZM147.051 120.854H147.93C148.791 120.854 149.427 120.711 149.837 120.424C150.247 120.137 150.452 119.686 150.452 119.07C150.452 118.461 150.241 118.027 149.819 117.77C149.403 117.512 148.756 117.383 147.877 117.383H147.051V120.854ZM147.051 123.069V128H144.326V115.15H148.07C149.816 115.15 151.108 115.47 151.946 116.108C152.784 116.741 153.203 117.705 153.203 119C153.203 119.756 152.995 120.43 152.579 121.021C152.163 121.607 151.574 122.067 150.812 122.401C152.746 125.29 154.006 127.156 154.592 128H151.568L148.501 123.069H147.051ZM161.706 128H158.981V117.418H155.492V115.15H165.195V117.418H161.706V128ZM179.376 121.558C179.376 123.685 178.848 125.319 177.794 126.462C176.739 127.604 175.227 128.176 173.259 128.176C171.29 128.176 169.778 127.604 168.723 126.462C167.669 125.319 167.141 123.679 167.141 121.54C167.141 119.401 167.669 117.77 168.723 116.645C169.784 115.514 171.302 114.948 173.276 114.948C175.251 114.948 176.76 115.517 177.803 116.653C178.851 117.79 179.376 119.425 179.376 121.558ZM169.998 121.558C169.998 122.993 170.27 124.074 170.815 124.801C171.36 125.527 172.175 125.891 173.259 125.891C175.432 125.891 176.519 124.446 176.519 121.558C176.519 118.663 175.438 117.216 173.276 117.216C172.192 117.216 171.375 117.582 170.824 118.314C170.273 119.041 169.998 120.122 169.998 121.558ZM185.26 128H182.579V115.15H189.944V117.383H185.26V120.696H189.619V122.92H185.26V128ZM204.661 121.558C204.661 123.685 204.134 125.319 203.079 126.462C202.024 127.604 200.512 128.176 198.544 128.176C196.575 128.176 195.063 127.604 194.009 126.462C192.954 125.319 192.427 123.679 192.427 121.54C192.427 119.401 192.954 117.77 194.009 116.645C195.069 115.514 196.587 114.948 198.561 114.948C200.536 114.948 202.045 115.517 203.088 116.653C204.136 117.79 204.661 119.425 204.661 121.558ZM195.283 121.558C195.283 122.993 195.555 124.074 196.1 124.801C196.645 125.527 197.46 125.891 198.544 125.891C200.718 125.891 201.804 124.446 201.804 121.558C201.804 118.663 200.723 117.216 198.561 117.216C197.477 117.216 196.66 117.582 196.109 118.314C195.558 119.041 195.283 120.122 195.283 121.558ZM207.864 128V115.15H210.589V125.75H215.801V128H207.864ZM218.582 128V115.15H221.306V128H218.582ZM236.744 121.558C236.744 123.685 236.216 125.319 235.162 126.462C234.107 127.604 232.595 128.176 230.627 128.176C228.658 128.176 227.146 127.604 226.091 126.462C225.037 125.319 224.509 123.679 224.509 121.54C224.509 119.401 225.037 117.77 226.091 116.645C227.152 115.514 228.67 114.948 230.644 114.948C232.619 114.948 234.128 115.517 235.171 116.653C236.219 117.79 236.744 119.425 236.744 121.558ZM227.366 121.558C227.366 122.993 227.638 124.074 228.183 124.801C228.728 125.527 229.543 125.891 230.627 125.891C232.8 125.891 233.887 124.446 233.887 121.558C233.887 118.663 232.806 117.216 230.644 117.216C229.56 117.216 228.743 117.582 228.192 118.314C227.641 119.041 227.366 120.122 227.366 121.558Z" fill="#FEFEFE"/>
<path d="M4.11865 176.279L18.702 177.328C33.2853 178.456 62.452 180.435 91.6187 188.945C120.785 197.456 149.952 212.102 179.119 219.563C208.285 226.945 237.452 226.945 266.619 220.612C295.785 214.279 324.952 201.612 339.535 195.279L354.119 188.945V233.279H339.535C324.952 233.279 295.785 233.279 266.619 233.279C237.452 233.279 208.285 233.279 179.119 233.279C149.952 233.279 120.785 233.279 91.6187 233.279C62.452 233.279 33.2853 233.279 18.702 233.279H4.11865V176.279Z" fill="#FFC831"/>
<g filter="url(#filter0_d)">
<g clip-path="url(#clip0)">
<path d="M-67.6165 47.1601C-77.5869 37.05 -73.9158 13.6558 -69.1495 -10.1645C-64.3831 -33.9525 -58.4892 -58.1669 -43.209 -67.2963C-27.8964 -76.4258 -3.16503 -70.4382 19.0763 -59.7226C41.3178 -48.9747 61.0371 -33.4665 65.0537 -14.7663C69.0705 3.96607 57.3523 25.8905 42.1505 37.376C26.9488 48.8615 8.29551 49.8755 -12.8692 52.002C-34.0018 54.0961 -57.6461 57.2702 -67.6165 47.1601Z" fill="#FCB900"/>
</g>
</g>
<path d="M187.667 64H170.333C167.942 64.0065 166.007 65.9424 166 68.3333V85.6667C166 88.05 167.95 90 170.333 90H187.667C190.05 90 192 88.05 192 85.6667V68.3333C192 65.95 190.05 64 187.667 64ZM185.297 82.2596C185.081 82.7817 184.737 83.2422 184.298 83.5964C183.843 83.9648 183.266 84.2681 182.557 84.4848C181.848 84.7047 181.005 84.8152 180.029 84.8152H173.061V69.6485H180.43C181.793 69.6485 182.885 69.9551 183.702 70.5802C184.525 71.2085 184.935 72.1445 184.935 73.4077C184.935 74.1714 184.748 74.8268 184.373 75.3685C184.001 75.9069 183.463 76.3283 182.77 76.6208V76.6707C183.695 76.8657 184.411 77.3044 184.883 77.9869C185.354 78.6694 185.595 79.5318 185.595 80.5728C185.595 81.1557 185.483 81.7103 185.27 82.2282L185.297 82.2574V82.2596ZM182.29 78.5221C181.846 78.1158 181.222 77.9176 180.416 77.9176H175.734V82.6496H180.429C181.231 82.6496 181.859 82.4416 182.303 82.0213C182.747 81.6042 182.975 81.0094 182.975 80.2446C182.967 79.4971 182.747 78.9186 182.303 78.5221H182.285H182.29ZM181.64 75.4638C182.069 75.0998 182.279 74.5787 182.279 73.8995C182.279 73.1368 182.09 72.5952 181.705 72.2853C181.324 71.9766 180.773 71.8163 180.05 71.8163H175.716V76.0012H180.05C180.681 76.0012 181.22 75.817 181.636 75.4638H181.64Z" fill="white"/>
<defs>
<filter id="filter0_d" x="0.118652" y="1" width="77.4062" height="77.4062" filterUnits="userSpaceOnUse" color-interpolation-filters="sRGB">
<feFlood flood-opacity="0" result="BackgroundImageFix"/>
<feColorMatrix in="SourceAlpha" type="matrix" values="0 0 0 0 0 0 0 0 0 0 0 0 0 0 0 0 0 0 127 0"/>
<feOffset dy="4"/>
<feGaussianBlur stdDeviation="2"/>
<feColorMatrix type="matrix" values="0 0 0 0 0 0 0 0 0 0 0 0 0 0 0 0 0 0 0.25 0"/>
<feBlend mode="normal" in2="BackgroundImageFix" result="effect1_dropShadow"/>
<feBlend mode="normal" in="SourceGraphic" in2="effect1_dropShadow" result="shape"/>
</filter>
<clipPath id="clip0">
<rect width="69" height="69" fill="white" transform="translate(73.5249 69.9988) rotate(179.662)"/>
</clipPath>
</defs>
</svg>
