<svg width="354" height="234" viewBox="0 0 354 234" fill="none" xmlns="http://www.w3.org/2000/svg">
<rect x="4" y="1" width="350" height="232.279" fill="#DE9F07"/>
<path d="M114.202 122.432C114.202 123.592 113.783 124.506 112.945 125.174C112.113 125.842 110.953 126.176 109.465 126.176C108.094 126.176 106.881 125.918 105.826 125.402V122.871C106.693 123.258 107.426 123.53 108.023 123.688C108.627 123.847 109.178 123.926 109.676 123.926C110.273 123.926 110.73 123.812 111.047 123.583C111.369 123.354 111.53 123.015 111.53 122.563C111.53 122.312 111.46 122.089 111.319 121.896C111.179 121.696 110.971 121.506 110.695 121.324C110.426 121.143 109.872 120.853 109.034 120.454C108.249 120.085 107.66 119.73 107.268 119.391C106.875 119.051 106.562 118.655 106.327 118.204C106.093 117.753 105.976 117.226 105.976 116.622C105.976 115.485 106.359 114.592 107.127 113.941C107.9 113.291 108.967 112.966 110.326 112.966C110.994 112.966 111.63 113.045 112.233 113.203C112.843 113.361 113.479 113.584 114.141 113.871L113.262 115.989C112.576 115.708 112.008 115.512 111.557 115.4C111.111 115.289 110.672 115.233 110.238 115.233C109.723 115.233 109.327 115.354 109.052 115.594C108.776 115.834 108.639 116.147 108.639 116.534C108.639 116.774 108.694 116.985 108.806 117.167C108.917 117.343 109.093 117.516 109.333 117.686C109.579 117.85 110.156 118.148 111.064 118.582C112.266 119.156 113.089 119.733 113.534 120.313C113.979 120.888 114.202 121.594 114.202 122.432ZM127.601 126H124.885V120.454H119.796V126H117.071V113.15H119.796V118.187H124.885V113.15H127.601V126ZM143.056 119.558C143.056 121.685 142.528 123.319 141.474 124.462C140.419 125.604 138.907 126.176 136.938 126.176C134.97 126.176 133.458 125.604 132.403 124.462C131.349 123.319 130.821 121.679 130.821 119.54C130.821 117.401 131.349 115.77 132.403 114.645C133.464 113.514 134.981 112.948 136.956 112.948C138.931 112.948 140.439 113.517 141.482 114.653C142.531 115.79 143.056 117.425 143.056 119.558ZM133.678 119.558C133.678 120.993 133.95 122.074 134.495 122.801C135.04 123.527 135.854 123.891 136.938 123.891C139.112 123.891 140.199 122.446 140.199 119.558C140.199 116.663 139.118 115.216 136.956 115.216C135.872 115.216 135.055 115.582 134.504 116.314C133.953 117.041 133.678 118.122 133.678 119.558ZM148.983 119.197H149.88C150.718 119.197 151.345 119.033 151.761 118.705C152.177 118.371 152.385 117.888 152.385 117.255C152.385 116.616 152.209 116.145 151.857 115.84C151.512 115.535 150.967 115.383 150.223 115.383H148.983V119.197ZM155.136 117.158C155.136 118.541 154.702 119.599 153.835 120.331C152.974 121.063 151.746 121.43 150.152 121.43H148.983V126H146.259V113.15H150.363C151.922 113.15 153.105 113.487 153.914 114.161C154.728 114.829 155.136 115.828 155.136 117.158ZM160.826 119.197H161.722C162.56 119.197 163.187 119.033 163.603 118.705C164.019 118.371 164.227 117.888 164.227 117.255C164.227 116.616 164.052 116.145 163.7 115.84C163.354 115.535 162.809 115.383 162.065 115.383H160.826V119.197ZM166.978 117.158C166.978 118.541 166.545 119.599 165.678 120.331C164.816 121.063 163.589 121.43 161.995 121.43H160.826V126H158.101V113.15H162.206C163.764 113.15 164.948 113.487 165.757 114.161C166.571 114.829 166.978 115.828 166.978 117.158ZM169.944 126V113.15H172.669V126H169.944ZM187.843 126H184.38L178.79 116.279H178.711C178.822 117.996 178.878 119.221 178.878 119.953V126H176.443V113.15H179.88L185.461 122.774H185.522C185.434 121.104 185.39 119.924 185.39 119.232V113.15H187.843V126ZM196.504 118.784H201.601V125.446C200.775 125.716 199.996 125.903 199.263 126.009C198.537 126.12 197.793 126.176 197.031 126.176C195.092 126.176 193.609 125.607 192.584 124.471C191.564 123.328 191.054 121.69 191.054 119.558C191.054 117.483 191.646 115.866 192.83 114.706C194.019 113.546 195.666 112.966 197.769 112.966C199.088 112.966 200.359 113.229 201.584 113.757L200.678 115.937C199.741 115.468 198.765 115.233 197.752 115.233C196.574 115.233 195.631 115.629 194.922 116.42C194.213 117.211 193.858 118.274 193.858 119.61C193.858 121.005 194.142 122.071 194.711 122.81C195.285 123.542 196.117 123.908 197.207 123.908C197.775 123.908 198.352 123.85 198.938 123.732V121.052H196.504V118.784ZM215.882 115.233C214.857 115.233 214.063 115.62 213.501 116.394C212.938 117.161 212.657 118.233 212.657 119.61C212.657 122.476 213.732 123.908 215.882 123.908C216.785 123.908 217.878 123.683 219.161 123.231V125.517C218.106 125.956 216.928 126.176 215.628 126.176C213.758 126.176 212.329 125.61 211.339 124.479C210.348 123.343 209.853 121.714 209.853 119.593C209.853 118.257 210.096 117.088 210.583 116.086C211.069 115.078 211.766 114.308 212.674 113.774C213.589 113.235 214.658 112.966 215.882 112.966C217.131 112.966 218.384 113.268 219.644 113.871L218.765 116.086C218.285 115.857 217.801 115.658 217.315 115.488C216.829 115.318 216.351 115.233 215.882 115.233ZM230.309 126L229.378 122.941H224.693L223.761 126H220.826L225.361 113.098H228.692L233.245 126H230.309ZM228.727 120.656C227.866 117.885 227.379 116.317 227.268 115.954C227.163 115.591 227.087 115.304 227.04 115.093C226.846 115.843 226.293 117.697 225.379 120.656H228.727ZM238.135 118.854H239.014C239.876 118.854 240.511 118.711 240.921 118.424C241.332 118.137 241.537 117.686 241.537 117.07C241.537 116.461 241.326 116.027 240.904 115.77C240.488 115.512 239.84 115.383 238.961 115.383H238.135V118.854ZM238.135 121.069V126H235.411V113.15H239.155C240.901 113.15 242.193 113.47 243.031 114.108C243.869 114.741 244.288 115.705 244.288 117C244.288 117.756 244.08 118.43 243.664 119.021C243.248 119.607 242.659 120.067 241.897 120.401C243.831 123.29 245.09 125.156 245.676 126H242.653L239.586 121.069H238.135ZM252.791 126H250.066V115.418H246.577V113.15H256.28V115.418H252.791V126Z" fill="#FEFEFE"/>
<path d="M4 176.279L18.5833 177.328C33.1667 178.456 62.3333 180.435 91.5 188.945C120.667 197.456 149.833 212.102 179 219.563C208.167 226.945 237.333 226.945 266.5 220.612C295.667 214.279 324.833 201.612 339.417 195.279L354 188.945V233.279H339.417C324.833 233.279 295.667 233.279 266.5 233.279C237.333 233.279 208.167 233.279 179 233.279C149.833 233.279 120.667 233.279 91.5 233.279C62.3333 233.279 33.1667 233.279 18.5833 233.279H4V176.279Z" fill="#FFC831"/>
<g filter="url(#filter0_d)">
<g clip-path="url(#clip0)">
<path d="M-67.7352 47.1601C-77.7056 37.05 -74.0344 13.6558 -69.2682 -10.1645C-64.5017 -33.9525 -58.6079 -58.1669 -43.3276 -67.2963C-28.0151 -76.4258 -3.28368 -70.4382 18.9576 -59.7226C41.1991 -48.9747 60.9184 -33.4665 64.935 -14.7663C68.9518 3.96607 57.2337 25.8905 42.0319 37.376C26.8301 48.8615 8.17685 49.8755 -12.9879 52.002C-34.1205 54.0961 -57.7648 57.2702 -67.7352 47.1601Z" fill="#FCB900"/>
</g>
</g>
<path d="M193.174 78.6554L195.964 66.4679C196.166 65.5879 195.492 64.75 194.583 64.75H171.398L170.857 62.1244C170.722 61.47 170.142 61 169.469 61H163.417C162.634 61 162 61.6296 162 62.4062V63.3438C162 64.1204 162.634 64.75 163.417 64.75H167.542L171.688 84.8731C170.696 85.4395 170.028 86.5013 170.028 87.7188C170.028 89.5309 171.508 91 173.333 91C175.159 91 176.639 89.5309 176.639 87.7188C176.639 86.8004 176.258 85.9706 175.646 85.375H188.021C187.408 85.9706 187.028 86.8004 187.028 87.7188C187.028 89.5309 188.508 91 190.333 91C192.159 91 193.639 89.5309 193.639 87.7188C193.639 86.4196 192.878 85.297 191.775 84.7653L192.101 83.3429C192.302 82.4629 191.628 81.625 190.719 81.625H174.875L174.489 79.75H191.792C192.454 79.75 193.027 79.2957 193.174 78.6554Z" fill="white"/>
<defs>
<filter id="filter0_d" x="0" y="1" width="77.4062" height="77.4062" filterUnits="userSpaceOnUse" color-interpolation-filters="sRGB">
<feFlood flood-opacity="0" result="BackgroundImageFix"/>
<feColorMatrix in="SourceAlpha" type="matrix" values="0 0 0 0 0 0 0 0 0 0 0 0 0 0 0 0 0 0 127 0"/>
<feOffset dy="4"/>
<feGaussianBlur stdDeviation="2"/>
<feColorMatrix type="matrix" values="0 0 0 0 0 0 0 0 0 0 0 0 0 0 0 0 0 0 0.25 0"/>
<feBlend mode="normal" in2="BackgroundImageFix" result="effect1_dropShadow"/>
<feBlend mode="normal" in="SourceGraphic" in2="effect1_dropShadow" result="shape"/>
</filter>
<clipPath id="clip0">
<rect width="69" height="69" fill="white" transform="translate(73.4062 69.9988) rotate(179.662)"/>
</clipPath>
</defs>
</svg>
