<svg width="355" height="234" viewBox="0 0 355 234" fill="none" xmlns="http://www.w3.org/2000/svg">
<rect x="4.11865" y="1" width="350" height="232.279" fill="#DE9F07"/>
<path d="M120.202 122.432C120.202 123.592 119.783 124.506 118.945 125.174C118.113 125.842 116.953 126.176 115.465 126.176C114.094 126.176 112.881 125.918 111.826 125.402V122.871C112.693 123.258 113.426 123.53 114.023 123.688C114.627 123.847 115.178 123.926 115.676 123.926C116.273 123.926 116.73 123.812 117.047 123.583C117.369 123.354 117.53 123.015 117.53 122.563C117.53 122.312 117.46 122.089 117.319 121.896C117.179 121.696 116.971 121.506 116.695 121.324C116.426 121.143 115.872 120.853 115.034 120.454C114.249 120.085 113.66 119.73 113.268 119.391C112.875 119.051 112.562 118.655 112.327 118.204C112.093 117.753 111.976 117.226 111.976 116.622C111.976 115.485 112.359 114.592 113.127 113.941C113.9 113.291 114.967 112.966 116.326 112.966C116.994 112.966 117.63 113.045 118.233 113.203C118.843 113.361 119.479 113.584 120.141 113.871L119.262 115.989C118.576 115.708 118.008 115.512 117.557 115.4C117.111 115.289 116.672 115.233 116.238 115.233C115.723 115.233 115.327 115.354 115.052 115.594C114.776 115.834 114.639 116.147 114.639 116.534C114.639 116.774 114.694 116.985 114.806 117.167C114.917 117.343 115.093 117.516 115.333 117.686C115.579 117.85 116.156 118.148 117.064 118.582C118.266 119.156 119.089 119.733 119.534 120.313C119.979 120.888 120.202 121.594 120.202 122.432ZM128.028 126H125.304V115.418H121.814V113.15H131.518V115.418H128.028V126ZM144.494 113.15V121.465C144.494 122.414 144.28 123.246 143.852 123.961C143.431 124.676 142.818 125.224 142.016 125.604C141.213 125.985 140.264 126.176 139.168 126.176C137.516 126.176 136.232 125.754 135.318 124.91C134.404 124.061 133.947 122.9 133.947 121.43V113.15H136.663V121.017C136.663 122.007 136.862 122.733 137.261 123.196C137.659 123.659 138.318 123.891 139.238 123.891C140.129 123.891 140.773 123.659 141.172 123.196C141.576 122.728 141.778 121.995 141.778 120.999V113.15H144.494ZM158.842 119.452C158.842 121.567 158.238 123.188 157.031 124.312C155.83 125.438 154.093 126 151.819 126H148.181V113.15H152.215C154.312 113.15 155.941 113.704 157.101 114.812C158.262 115.919 158.842 117.466 158.842 119.452ZM156.012 119.522C156.012 116.763 154.793 115.383 152.355 115.383H150.905V123.75H152.074C154.699 123.75 156.012 122.341 156.012 119.522ZM169.445 126H162.045V113.15H169.445V115.383H164.769V118.204H169.12V120.437H164.769V123.75H169.445V126ZM184.074 126H180.611L175.021 116.279H174.942C175.054 117.996 175.109 119.221 175.109 119.953V126H172.675V113.15H176.111L181.692 122.774H181.754C181.666 121.104 181.622 119.924 181.622 119.232V113.15H184.074V126ZM192.814 126H190.09V115.418H186.6V113.15H196.303V115.418H192.814V126ZM214.698 119.452C214.698 121.567 214.094 123.188 212.887 124.312C211.686 125.438 209.949 126 207.675 126H204.037V113.15H208.071C210.169 113.15 211.798 113.704 212.958 114.812C214.118 115.919 214.698 117.466 214.698 119.452ZM211.868 119.522C211.868 116.763 210.649 115.383 208.212 115.383H206.761V123.75H207.93C210.555 123.75 211.868 122.341 211.868 119.522ZM225.767 126L224.836 122.941H220.151L219.219 126H216.284L220.819 113.098H224.15L228.703 126H225.767ZM224.185 120.656C223.324 117.885 222.838 116.317 222.726 115.954C222.621 115.591 222.545 115.304 222.498 115.093C222.304 115.843 221.751 117.697 220.837 120.656H224.185ZM235.826 126H233.101V115.418H229.612V113.15H239.315V115.418H235.826V126ZM249.699 126L248.767 122.941H244.083L243.151 126H240.215L244.751 113.098H248.082L252.634 126H249.699ZM248.117 120.656C247.255 117.885 246.769 116.317 246.658 115.954C246.552 115.591 246.476 115.304 246.429 115.093C246.236 115.843 245.682 117.697 244.768 120.656H248.117Z" fill="#FEFEFE"/>
<path d="M4.11865 176.279L18.702 177.328C33.2853 178.456 62.452 180.435 91.6187 188.945C120.785 197.456 149.952 212.102 179.119 219.563C208.285 226.945 237.452 226.945 266.619 220.612C295.785 214.279 324.952 201.612 339.535 195.279L354.119 188.945V233.279H339.535C324.952 233.279 295.785 233.279 266.619 233.279C237.452 233.279 208.285 233.279 179.119 233.279C149.952 233.279 120.785 233.279 91.6187 233.279C62.452 233.279 33.2853 233.279 18.702 233.279H4.11865V176.279Z" fill="#FFC831"/>
<g filter="url(#filter0_d)">
<g clip-path="url(#clip0)">
<path d="M-67.6165 47.1601C-77.5869 37.05 -73.9157 13.6558 -69.1494 -10.1645C-64.383 -33.9525 -58.4892 -58.1669 -43.2089 -67.2963C-27.8964 -76.4258 -3.16497 -70.4382 19.0763 -59.7226C41.3178 -48.9747 61.0371 -33.4665 65.0538 -14.7663C69.0705 3.96607 57.3524 25.8905 42.1506 37.376C26.9488 48.8615 8.29557 49.8755 -12.8692 52.002C-34.0018 54.0961 -57.6461 57.2702 -67.6165 47.1601Z" fill="#FCB900"/>
</g>
</g>
<path d="M166.5 75.5C169.258 75.5 171.5 73.2578 171.5 70.5C171.5 67.7422 169.258 65.5 166.5 65.5C163.742 65.5 161.5 67.7422 161.5 70.5C161.5 73.2578 163.742 75.5 166.5 75.5ZM201.5 75.5C204.258 75.5 206.5 73.2578 206.5 70.5C206.5 67.7422 204.258 65.5 201.5 65.5C198.742 65.5 196.5 67.7422 196.5 70.5C196.5 73.2578 198.742 75.5 201.5 75.5ZM204 78H199C197.625 78 196.383 78.5547 195.477 79.4531C198.625 81.1797 200.859 84.2969 201.344 88H206.5C207.883 88 209 86.8828 209 85.5V83C209 80.2422 206.758 78 204 78ZM184 78C188.836 78 192.75 74.0859 192.75 69.25C192.75 64.4141 188.836 60.5 184 60.5C179.164 60.5 175.25 64.4141 175.25 69.25C175.25 74.0859 179.164 78 184 78ZM190 80.5H189.352C187.727 81.2812 185.922 81.75 184 81.75C182.078 81.75 180.281 81.2812 178.648 80.5H178C173.031 80.5 169 84.5313 169 89.5V91.75C169 93.8203 170.68 95.5 172.75 95.5H195.25C197.32 95.5 199 93.8203 199 91.75V89.5C199 84.5313 194.969 80.5 190 80.5ZM172.523 79.4531C171.617 78.5547 170.375 78 169 78H164C161.242 78 159 80.2422 159 83V85.5C159 86.8828 160.117 88 161.5 88H166.648C167.141 84.2969 169.375 81.1797 172.523 79.4531Z" fill="white"/>
<defs>
<filter id="filter0_d" x="0.118652" y="1" width="77.4062" height="77.4062" filterUnits="userSpaceOnUse" color-interpolation-filters="sRGB">
<feFlood flood-opacity="0" result="BackgroundImageFix"/>
<feColorMatrix in="SourceAlpha" type="matrix" values="0 0 0 0 0 0 0 0 0 0 0 0 0 0 0 0 0 0 127 0"/>
<feOffset dy="4"/>
<feGaussianBlur stdDeviation="2"/>
<feColorMatrix type="matrix" values="0 0 0 0 0 0 0 0 0 0 0 0 0 0 0 0 0 0 0.25 0"/>
<feBlend mode="normal" in2="BackgroundImageFix" result="effect1_dropShadow"/>
<feBlend mode="normal" in="SourceGraphic" in2="effect1_dropShadow" result="shape"/>
</filter>
<clipPath id="clip0">
<rect width="69" height="69" fill="white" transform="translate(73.5249 69.9988) rotate(179.662)"/>
</clipPath>
</defs>
</svg>
