<svg width="355" height="234" viewBox="0 0 355 234" fill="none" xmlns="http://www.w3.org/2000/svg">
<rect x="4.11865" y="1" width="350" height="232.279" fill="#DE9F07"/>
<path d="M126.574 124H123.85V113.418H120.36V111.15H130.063V113.418H126.574V124ZM136.58 116.441L139.261 111.15H142.196L137.934 118.999V124H135.227V119.087L130.964 111.15H133.917L136.58 116.441ZM147.078 117.197H147.975C148.812 117.197 149.439 117.033 149.855 116.705C150.271 116.371 150.479 115.888 150.479 115.255C150.479 114.616 150.304 114.145 149.952 113.84C149.606 113.535 149.061 113.383 148.317 113.383H147.078V117.197ZM153.23 115.158C153.23 116.541 152.797 117.599 151.93 118.331C151.068 119.063 149.841 119.43 148.247 119.43H147.078V124H144.353V111.15H148.458C150.017 111.15 151.2 111.487 152.009 112.161C152.823 112.829 153.23 113.828 153.23 115.158ZM163.597 124H156.196V111.15H163.597V113.383H158.921V116.204H163.271V118.437H158.921V121.75H163.597V124ZM179.342 124H176.239L174.499 117.25C174.434 117.01 174.323 116.515 174.165 115.765C174.013 115.009 173.925 114.502 173.901 114.244C173.866 114.561 173.778 115.07 173.638 115.773C173.497 116.471 173.389 116.969 173.312 117.268L171.581 124H168.487L165.209 111.15H167.889L169.533 118.164C169.82 119.459 170.028 120.581 170.157 121.53C170.192 121.196 170.271 120.681 170.394 119.983C170.523 119.28 170.643 118.735 170.755 118.349L172.627 111.15H175.202L177.074 118.349C177.156 118.671 177.259 119.163 177.382 119.825C177.505 120.487 177.598 121.056 177.663 121.53C177.722 121.073 177.815 120.505 177.944 119.825C178.073 119.14 178.19 118.586 178.296 118.164L179.931 111.15H182.611L179.342 124ZM187.493 116.854H188.372C189.233 116.854 189.869 116.711 190.279 116.424C190.689 116.137 190.894 115.686 190.894 115.07C190.894 114.461 190.683 114.027 190.262 113.77C189.846 113.512 189.198 113.383 188.319 113.383H187.493V116.854ZM187.493 119.069V124H184.768V111.15H188.513C190.259 111.15 191.551 111.47 192.388 112.108C193.226 112.741 193.645 113.705 193.645 115C193.645 115.756 193.437 116.43 193.021 117.021C192.605 117.607 192.016 118.067 191.255 118.401C193.188 121.29 194.448 123.156 195.034 124H192.011L188.943 119.069H187.493ZM197.191 124V111.15H199.916V124H197.191ZM208.647 124H205.923V113.418H202.433V111.15H212.136V113.418H208.647V124ZM222.054 124H214.654V111.15H222.054V113.383H217.379V116.204H221.729V118.437H217.379V121.75H222.054V124ZM228.008 116.854H228.887C229.749 116.854 230.384 116.711 230.795 116.424C231.205 116.137 231.41 115.686 231.41 115.07C231.41 114.461 231.199 114.027 230.777 113.77C230.361 113.512 229.714 113.383 228.835 113.383H228.008V116.854ZM228.008 119.069V124H225.284V111.15H229.028C230.774 111.15 232.066 111.47 232.904 112.108C233.742 112.741 234.161 113.705 234.161 115C234.161 115.756 233.953 116.43 233.537 117.021C233.121 117.607 232.532 118.067 231.77 118.401C233.704 121.29 234.964 123.156 235.549 124H232.526L229.459 119.069H228.008Z" fill="#FEFEFE"/>
<path d="M4.11865 176.279L18.702 177.328C33.2853 178.456 62.452 180.435 91.6187 188.945C120.785 197.456 149.952 212.102 179.119 219.563C208.285 226.945 237.452 226.945 266.619 220.612C295.785 214.279 324.952 201.612 339.535 195.279L354.119 188.945V233.279H339.535C324.952 233.279 295.785 233.279 266.619 233.279C237.452 233.279 208.285 233.279 179.119 233.279C149.952 233.279 120.785 233.279 91.6187 233.279C62.452 233.279 33.2853 233.279 18.702 233.279H4.11865V176.279Z" fill="#FFC831"/>
<g filter="url(#filter0_d)">
<g clip-path="url(#clip0)">
<path d="M-67.6165 47.1601C-77.5869 37.05 -73.9157 13.6558 -69.1494 -10.1645C-64.383 -33.9525 -58.4892 -58.1669 -43.2089 -67.2963C-27.8964 -76.4258 -3.16497 -70.4382 19.0763 -59.7226C41.3178 -48.9747 61.0371 -33.4665 65.0538 -14.7663C69.0705 3.96607 57.3524 25.8905 42.1506 37.376C26.9488 48.8615 8.29557 49.8755 -12.8692 52.002C-34.0018 54.0961 -57.6461 57.2702 -67.6165 47.1601Z" fill="#FCB900"/>
</g>
</g>
<path d="M193.167 61.625H164.833C163.269 61.625 162 62.8422 162 64.3438V80.6562C162 82.1578 163.269 83.375 164.833 83.375H193.167C194.731 83.375 196 82.1578 196 80.6562V64.3438C196 62.8422 194.731 61.625 193.167 61.625ZM193.639 80.6562C193.639 80.9061 193.427 81.1094 193.167 81.1094H164.833C164.573 81.1094 164.361 80.9061 164.361 80.6562V64.3438C164.361 64.0939 164.573 63.8906 164.833 63.8906H193.167C193.427 63.8906 193.639 64.0939 193.639 64.3438V80.6562ZM172.035 73.293V71.707C172.035 71.3317 171.718 71.0273 171.326 71.0273H169.674C169.282 71.0273 168.965 71.3317 168.965 71.707V73.293C168.965 73.6683 169.282 73.9727 169.674 73.9727H171.326C171.718 73.9727 172.035 73.6683 172.035 73.293ZM177.701 73.293V71.707C177.701 71.3317 177.384 71.0273 176.993 71.0273H175.34C174.949 71.0273 174.632 71.3317 174.632 71.707V73.293C174.632 73.6683 174.949 73.9727 175.34 73.9727H176.993C177.384 73.9727 177.701 73.6683 177.701 73.293ZM183.368 73.293V71.707C183.368 71.3317 183.051 71.0273 182.66 71.0273H181.007C180.616 71.0273 180.299 71.3317 180.299 71.707V73.293C180.299 73.6683 180.616 73.9727 181.007 73.9727H182.66C183.051 73.9727 183.368 73.6683 183.368 73.293ZM189.035 73.293V71.707C189.035 71.3317 188.718 71.0273 188.326 71.0273H186.674C186.282 71.0273 185.965 71.3317 185.965 71.707V73.293C185.965 73.6683 186.282 73.9727 186.674 73.9727H188.326C188.718 73.9727 189.035 73.6683 189.035 73.293ZM169.201 77.9375V76.3516C169.201 75.9762 168.884 75.6719 168.493 75.6719H166.84C166.449 75.6719 166.132 75.9762 166.132 76.3516V77.9375C166.132 78.3129 166.449 78.6172 166.84 78.6172H168.493C168.884 78.6172 169.201 78.3129 169.201 77.9375ZM191.868 77.9375V76.3516C191.868 75.9762 191.551 75.6719 191.16 75.6719H189.507C189.116 75.6719 188.799 75.9762 188.799 76.3516V77.9375C188.799 78.3129 189.116 78.6172 189.507 78.6172H191.16C191.551 78.6172 191.868 78.3129 191.868 77.9375ZM169.201 68.6484V67.0625C169.201 66.6871 168.884 66.3828 168.493 66.3828H166.84C166.449 66.3828 166.132 66.6871 166.132 67.0625V68.6484C166.132 69.0238 166.449 69.3281 166.84 69.3281H168.493C168.884 69.3281 169.201 69.0238 169.201 68.6484ZM174.868 68.6484V67.0625C174.868 66.6871 174.551 66.3828 174.16 66.3828H172.507C172.116 66.3828 171.799 66.6871 171.799 67.0625V68.6484C171.799 69.0238 172.116 69.3281 172.507 69.3281H174.16C174.551 69.3281 174.868 69.0238 174.868 68.6484ZM180.535 68.6484V67.0625C180.535 66.6871 180.218 66.3828 179.826 66.3828H178.174C177.782 66.3828 177.465 66.6871 177.465 67.0625V68.6484C177.465 69.0238 177.782 69.3281 178.174 69.3281H179.826C180.218 69.3281 180.535 69.0238 180.535 68.6484ZM186.201 68.6484V67.0625C186.201 66.6871 185.884 66.3828 185.493 66.3828H183.84C183.449 66.3828 183.132 66.6871 183.132 67.0625V68.6484C183.132 69.0238 183.449 69.3281 183.84 69.3281H185.493C185.884 69.3281 186.201 69.0238 186.201 68.6484ZM191.868 68.6484V67.0625C191.868 66.6871 191.551 66.3828 191.16 66.3828H189.507C189.116 66.3828 188.799 66.6871 188.799 67.0625V68.6484C188.799 69.0238 189.116 69.3281 189.507 69.3281H191.16C191.551 69.3281 191.868 69.0238 191.868 68.6484ZM186.083 77.5977V76.6914C186.083 76.316 185.766 76.0117 185.375 76.0117H172.625C172.234 76.0117 171.917 76.316 171.917 76.6914V77.5977C171.917 77.973 172.234 78.2773 172.625 78.2773H185.375C185.766 78.2773 186.083 77.973 186.083 77.5977Z" fill="white"/>
<defs>
<filter id="filter0_d" x="0.118652" y="1" width="77.4062" height="77.4062" filterUnits="userSpaceOnUse" color-interpolation-filters="sRGB">
<feFlood flood-opacity="0" result="BackgroundImageFix"/>
<feColorMatrix in="SourceAlpha" type="matrix" values="0 0 0 0 0 0 0 0 0 0 0 0 0 0 0 0 0 0 127 0"/>
<feOffset dy="4"/>
<feGaussianBlur stdDeviation="2"/>
<feColorMatrix type="matrix" values="0 0 0 0 0 0 0 0 0 0 0 0 0 0 0 0 0 0 0.25 0"/>
<feBlend mode="normal" in2="BackgroundImageFix" result="effect1_dropShadow"/>
<feBlend mode="normal" in="SourceGraphic" in2="effect1_dropShadow" result="shape"/>
</filter>
<clipPath id="clip0">
<rect width="69" height="69" fill="white" transform="translate(73.5249 69.9988) rotate(179.662)"/>
</clipPath>
</defs>
</svg>
